<svg width="100" height="145" viewBox="0 0 100 145" fill="none" xmlns="http://www.w3.org/2000/svg">
<rect width="94" height="142" fill="#3E4C71"/>
<rect width="100" height="145" fill="#3E4C71"/>
<mask id="path-2-inside-1_2063_33600" fill="white">
<path d="M57.2672 57.131C57.2672 59.0407 58.8565 60.5759 60.8046 60.5759C62.7527 60.5759 64.342 59.0282 64.342 57.131C64.342 55.2339 62.7527 53.6862 60.8046 53.6862C58.8565 53.6862 57.2672 55.2214 57.2672 57.131Z"/>
<path d="M57.7799 57.131C57.7927 58.3417 58.5617 59.4651 59.7408 59.8894C60.9456 60.3138 62.3041 59.9768 63.1372 59.0282C63.9575 58.0921 64.06 56.7067 63.4192 55.6458C62.7783 54.5848 61.4839 53.9982 60.2278 54.2353C58.8052 54.5099 57.7927 55.7206 57.7799 57.131C57.767 57.7676 56.7417 57.7676 56.7545 57.131C56.7802 55.471 57.8311 54.0107 59.4204 53.4241C60.984 52.8499 62.8552 53.3367 63.919 54.6098C64.9956 55.8954 65.1751 57.7302 64.2779 59.1655C63.3935 60.5884 61.6761 61.3123 59.9971 61.0003C58.1131 60.6508 56.7673 58.9783 56.7545 57.131C56.7417 56.482 57.767 56.482 57.7799 57.131Z"/>
<path d="M52.7942 69.0633H68.8022V68.8511C68.8022 65.1566 65.7262 62.1611 61.9324 62.1611H59.6511C55.8574 62.1611 52.7814 65.1566 52.7814 68.8511L52.7942 69.0633Z"/>
<path d="M52.7942 68.5641H68.8022C68.6356 68.7263 68.4561 68.9011 68.2895 69.0633C68.2895 67.5156 67.8281 66.0303 66.7643 64.8321C65.6877 63.6214 64.1625 62.8226 62.522 62.6853C61.5736 62.6104 60.6123 62.6603 59.6639 62.6603C58.0362 62.6728 56.4469 63.2719 55.2678 64.3828C53.9477 65.6309 53.3068 67.2909 53.3068 69.0633C53.3068 69.6999 52.2815 69.6999 52.2815 69.0633C52.2815 67.266 52.8454 65.581 54.0374 64.1955C55.2422 62.7976 56.9852 61.9239 58.8308 61.7117C59.8818 61.5869 60.9712 61.6493 62.035 61.6618C63.9318 61.6868 65.7646 62.4357 67.1232 63.7337C68.5971 65.1566 69.3148 67.0538 69.3148 69.0633C69.3148 69.3379 69.0713 69.5626 68.8022 69.5626H52.7942C52.1405 69.5626 52.1405 68.5641 52.7942 68.5641Z"/>
</svg> 