<svg version="1.1" id="Layer_1" xmlns="http://www.w3.org/2000/svg" xmlns:xlink="http://www.w3.org/1999/xlink" x="0px" y="0px"
	 width="100%" viewBox="0 0 1024 1024" enable-background="new 0 0 1024 1024" xml:space="preserve">
<path fill="#3E4C71" opacity="1.000000" stroke="none" 
	d="
M309.606293,233.239685 
	C314.328308,231.302979 318.848755,230.607819 323.592194,230.609680 
	C450.088837,230.659180 576.586792,230.940842 703.080811,230.363419 
	C724.091614,230.267502 735.234558,254.134293 726.468140,268.922394 
	C721.547607,277.223022 716.265015,285.311829 711.033630,293.423920 
	C709.183838,296.292389 709.276978,298.122101 712.255127,300.449432 
	C757.336548,335.678772 786.696350,381.564087 803.007568,436.005859 
	C812.071289,466.257751 817.084412,497.296204 816.086731,528.914001 
	C813.797363,601.470642 790.005310,665.990662 742.059204,721.006897 
	C710.322205,757.423950 672.662170,785.542480 626.756287,801.825989 
	C618.228760,804.850830 609.588928,806.501770 600.411316,806.468750 
	C543.580261,806.264404 486.743439,805.964172 429.919098,806.616516 
	C413.002045,806.810669 397.728180,802.718567 382.813721,795.775574 
	C327.254730,769.911743 283.939240,730.224121 252.296875,678.056091 
	C233.341583,646.804993 220.852249,612.858765 214.610504,576.666626 
	C210.543503,553.084534 209.257217,529.322754 210.855240,505.595001 
	C214.690536,448.648529 231.272308,395.900330 265.789429,349.706024 
	C279.594086,331.231232 295.182373,314.335876 313.880249,300.595856 
	C316.513275,298.660980 316.723480,296.935120 315.025116,294.381378 
	C310.231201,287.172821 305.312195,280.032654 300.868805,272.610321 
	C297.227142,266.527191 295.277771,259.935120 296.556152,252.587433 
	C298.006561,244.251236 301.431915,237.432571 309.606293,233.239685 
M618.889526,689.372620 
	C635.380554,696.553467 645.934875,708.748535 650.502625,726.232849 
	C652.772888,734.923157 652.214478,743.723694 652.381714,752.516541 
	C652.437561,755.455200 652.245239,758.473755 654.058289,761.011963 
	C656.884155,761.036560 658.624023,759.314331 660.554993,758.117004 
	C701.677979,732.619751 733.482117,698.212524 757.027588,656.159668 
	C774.862061,624.306824 785.430359,590.060974 789.834900,553.773254 
	C792.421021,532.466858 792.210449,511.244049 789.413635,490.110168 
	C785.661926,461.760620 777.241760,434.666809 765.458008,408.593109 
	C763.485779,404.229248 761.131042,404.138214 757.250793,405.697479 
	C732.556396,415.620972 707.945923,413.901428 683.969971,403.638031 
	C662.138733,394.292725 640.943481,393.767914 619.497681,404.465118 
	C608.635864,409.883026 596.854309,412.163330 584.740051,412.295654 
	C569.673706,412.460236 555.543701,408.337799 541.751648,402.611938 
	C522.616211,394.667694 503.604156,393.635834 484.310120,402.834808 
	C470.832306,409.260742 456.330597,412.464417 441.296906,412.292542 
	C427.422791,412.133942 414.502930,407.914246 401.911774,402.420319 
	C383.167969,394.241852 364.590149,394.499969 345.941620,403.157104 
	C330.573334,410.291534 314.366455,412.884125 297.347473,411.583527 
	C287.078522,410.798737 277.419495,408.065277 267.753906,405.036957 
	C264.840851,404.124268 262.819458,404.001984 261.292816,407.298309 
	C244.806625,442.894989 235.311783,480.204285 234.437119,519.470276 
	C233.898331,543.658325 237.059067,567.510071 242.880585,591.024963 
	C253.810928,635.176086 276.098053,673.207703 305.608032,707.256714 
	C323.398010,727.782898 344.125061,745.000244 367.259216,759.264160 
	C372.232513,762.330566 373.514008,761.544678 373.627075,755.612549 
	C373.757019,748.794128 374.027618,742.001343 374.515839,735.184021 
	C376.170166,712.084290 393.472595,691.565796 416.077393,686.673706 
	C429.080627,683.859558 442.232269,683.641357 455.266052,685.782043 
	C480.422455,689.913818 498.830292,706.931213 501.169220,734.876343 
	C502.333649,748.788696 502.532471,762.831543 501.745087,776.819092 
	C501.543945,780.392395 502.951355,781.698730 506.300659,781.649902 
	C510.465424,781.589172 514.640869,781.468872 518.794983,781.690063 
	C523.102661,781.919434 524.763794,780.182678 524.705322,775.853333 
	C524.543274,763.858337 524.637512,751.859619 524.668396,739.862427 
	C524.730896,715.623779 539.837585,694.552490 563.138428,687.908630 
	C581.413269,682.697876 599.947998,683.005127 618.889526,689.372620 
M327.600861,384.031097 
	C331.492279,382.574646 335.421265,381.210510 339.267853,379.643921 
	C349.626007,375.425323 360.126740,372.040649 371.483795,371.652527 
	C386.654205,371.134155 400.751312,374.957336 414.437256,381.077942 
	C422.986328,384.901306 431.865112,387.660309 441.373077,387.643829 
	C453.394226,387.622955 464.680695,384.446289 475.524872,379.494995 
	C493.558655,371.260986 512.289734,369.622803 531.570374,373.662048 
	C542.516785,375.955353 552.691956,380.695923 563.300415,384.084381 
	C580.662659,389.630066 597.276367,388.503113 613.551758,380.227173 
	C624.365967,374.728180 635.954834,372.156555 648.120605,371.650574 
	C663.476379,371.011902 677.671997,375.101715 691.645447,380.876007 
	C707.376404,387.376495 723.639282,389.688995 740.423218,385.556244 
	C743.893921,384.701660 747.614136,384.175049 750.256165,381.389984 
	C750.024658,379.441498 748.793518,378.231812 747.865051,376.890442 
	C730.873840,352.342712 711.356812,330.227295 686.697693,312.996124 
	C680.290466,308.518951 678.538391,302.868195 680.841675,295.580414 
	C682.052368,291.749817 684.074219,288.268372 686.323059,284.954529 
	C691.746765,276.962463 697.307251,269.062531 702.672241,261.031708 
	C705.493713,256.808319 704.738647,255.541946 699.691772,255.377045 
	C698.859558,255.349854 698.025757,255.368820 697.192688,255.368835 
	C574.232300,255.369370 451.271881,255.369949 328.311493,255.373795 
	C327.146027,255.373840 325.959656,255.285889 324.819092,255.466629 
	C321.511505,255.990738 320.392548,257.676147 322.453583,260.641174 
	C323.400452,262.003265 324.586151,263.197510 325.636963,264.489502 
	C332.794312,273.289551 339.743561,282.264893 344.458282,292.657593 
	C348.520599,301.612213 346.615326,308.248718 338.775879,313.461578 
	C314.050934,329.902588 295.501038,352.238678 278.738464,376.267639 
	C275.530548,380.866119 276.008850,381.765015 281.235199,383.647980 
	C296.365662,389.099243 311.579010,388.348175 327.600861,384.031097 
z"/>
<path fill="#3E4C71" opacity="1.000000" stroke="none" 
	d="
M467.430847,534.390503 
	C483.798767,520.060974 503.066803,518.585388 523.144226,520.127930 
	C536.668457,521.167053 548.769287,525.465393 558.881592,534.794250 
	C569.702271,544.776672 575.153992,557.250061 576.343567,571.759949 
	C576.438538,572.919617 576.389893,574.122498 576.691406,575.228027 
	C577.639587,578.704773 576.235046,580.368774 572.908936,581.453186 
	C564.740967,584.116150 557.289124,588.319397 551.008301,594.131042 
	C539.300598,604.964233 533.283508,618.558655 533.449341,634.555298 
	C533.498108,639.260254 532.178406,641.173706 527.342712,641.062134 
	C517.686157,640.839172 508.020813,640.964783 498.359283,641.002319 
	C494.351624,641.017944 492.568451,639.641724 492.546448,635.125427 
	C492.422424,609.683472 477.476257,589.458435 453.090240,581.589233 
	C449.792847,580.525085 448.478333,579.058655 448.633514,575.642639 
	C449.367371,559.485718 454.523163,545.378235 467.430847,534.390503 
z"/>
<path fill="#3E4C71" opacity="1.000000" stroke="none" 
	d="
M713.624023,584.687500 
	C716.282288,592.349060 717.450256,599.892944 717.303162,607.575867 
	C717.016479,622.548035 718.237183,637.545105 716.474121,652.500488 
	C716.185730,654.946533 715.377686,656.332458 713.150208,657.428711 
	C701.205261,663.307495 688.665100,666.445007 675.352661,667.525024 
	C662.526306,668.565674 649.727600,668.114136 636.918213,668.354065 
	C635.151917,668.387146 633.262695,668.807251 631.074951,667.194214 
	C641.680725,650.484741 644.739014,632.730591 637.199158,613.799622 
	C629.585693,594.683960 614.876587,584.256897 595.066956,579.638916 
	C597.274353,571.945801 601.779663,566.594910 607.791504,562.458618 
	C615.332886,557.270020 623.808716,554.600464 632.849731,553.291443 
	C647.795044,551.127380 662.726440,550.948364 677.471375,554.158203 
	C694.579651,557.882568 706.612427,568.126770 713.624023,584.687500 
z"/>
<path fill="#3E4C71" opacity="1.000000" stroke="none" 
	d="
M322.864990,567.868896 
	C333.295532,557.286377 346.036163,553.349854 360.120087,552.646851 
	C373.095825,551.999207 386.091888,551.679321 398.799835,554.783630 
	C410.472717,557.635071 420.306549,563.621887 427.085022,573.886597 
	C428.158875,575.512756 429.479248,577.153137 428.884705,579.958923 
	C410.010468,584.660522 395.277435,594.922546 388.192535,614.159180 
	C381.345062,632.751038 383.824493,650.354797 394.374817,666.686035 
	C393.583801,667.421387 393.357178,667.820190 393.116730,667.828796 
	C366.331635,668.779114 339.501343,670.258667 314.229584,658.334167 
	C310.349976,656.503601 308.423584,654.526672 308.528564,649.815735 
	C308.881104,633.994080 308.547119,618.158630 308.712524,602.330933 
	C308.850098,589.165466 313.113251,577.546997 322.864990,567.868896 
z"/>
<path fill="#3E4C71" opacity="1.000000" stroke="none" 
	d="
M682.599854,527.542847 
	C671.766846,539.369202 658.652588,543.881104 643.544373,539.905273 
	C628.482300,535.941467 619.077026,525.534485 615.160950,510.516083 
	C610.559814,492.870422 617.854187,475.649445 633.230896,466.948425 
	C648.941956,458.058167 668.374695,460.350891 680.776611,472.557922 
	C695.330444,486.883026 696.180664,509.527008 682.599854,527.542847 
z"/>
<path fill="#3E4C71" opacity="1.000000" stroke="none" 
	d="
M356.661804,537.627930 
	C330.478424,524.075806 326.267548,485.716125 352.018219,467.971832 
	C364.999847,459.026459 379.080261,459.425537 392.697815,466.803009 
	C405.657990,473.824402 411.583160,485.327545 412.379303,499.908783 
	C413.526978,520.927185 396.803223,541.868896 371.461548,541.271667 
	C366.423981,541.152893 361.629608,539.754700 356.661804,537.627930 
z"/>
<path fill="#3E4C71" opacity="1.000000" stroke="none" 
	d="
M465.189941,606.819031 
	C484.930573,629.210754 475.671204,656.160583 458.594788,667.137512 
	C435.708344,681.849365 405.119354,667.703247 401.596497,640.773682 
	C398.179871,614.656494 415.131104,599.729797 431.042511,596.383667 
	C444.130371,593.631348 455.315460,597.581238 465.189941,606.819031 
z"/>
<path fill="#3E4C71" opacity="1.000000" stroke="none" 
	d="
M619.755676,614.394348 
	C633.130066,638.930115 619.256836,663.592896 600.003906,670.368835 
	C576.003906,678.815308 550.300049,660.422058 549.437317,634.983215 
	C548.798584,616.150330 565.923035,592.683105 591.851379,595.786255 
	C603.899536,597.228271 613.226501,603.584656 619.755676,614.394348 
z"/>
<path fill="#3E4C71" opacity="1.000000" stroke="none" 
	d="
M483.615784,450.702881 
	C494.355560,436.459564 512.875610,433.460968 527.506653,439.116486 
	C543.814453,445.420074 551.273254,462.785431 549.919861,476.839539 
	C548.156677,495.150116 535.811218,508.056427 519.026367,510.441193 
	C495.775452,513.744629 477.387756,499.148895 475.804565,475.798065 
	C475.188049,466.705078 478.117950,458.422028 483.615784,450.702881 
z"/>
</svg> 