<svg width="100" height="145" viewBox="0 0 100 145" fill="none" xmlns="http://www.w3.org/2000/svg">
<rect width="100" height="145" fill="#D8D9DA"/>
<path d="M57.2237 37.4962C57.2237 40.6402 54.4212 43.1677 50.9859 43.1677C47.5506 43.1677 44.7482 40.6196 44.7482 37.4962C44.7482 34.3727 47.5506 31.8247 50.9859 31.8247C54.4212 31.8247 57.2237 34.3522 57.2237 37.4962Z" fill="#3E4C71"/>
<path d="M56.3422 37.4962C56.3196 39.4894 54.9636 41.3388 52.8844 42.0375C50.7599 42.7362 48.3642 42.1813 46.8952 40.6196C45.4488 39.0784 45.268 36.7975 46.398 35.0508C47.528 33.3042 49.8107 32.3384 52.0255 32.7288C54.5116 33.1809 56.297 35.1536 56.3422 37.4962C56.3648 38.5442 58.1729 38.5442 58.1503 37.4962C58.1051 34.7632 56.2518 32.3589 53.4494 31.3931C50.6921 30.4479 47.3924 31.2493 45.5166 33.3453C43.6181 35.4618 43.3017 38.4825 44.8838 40.8457C46.4432 43.1882 49.4717 44.3801 52.4323 43.8664C55.7546 43.291 58.1277 40.5374 58.1503 37.4962C58.1503 36.4276 56.3422 36.4276 56.3422 37.4962Z" fill="#3E4C71"/>
<path d="M65.1112 57.141H36.8832V56.7917C36.8832 50.7092 42.3073 45.7774 48.9971 45.7774H53.02C59.7097 45.7774 65.1338 50.7092 65.1338 56.7917L65.1112 57.141Z" fill="#3E4C71"/>
<path d="M65.1112 56.319H36.8832C37.177 56.5862 37.4934 56.8739 37.7872 57.141C37.7872 54.5929 38.6008 52.1476 40.4767 50.1749C42.3751 48.1816 45.0646 46.8665 47.9574 46.6405C49.6299 46.5172 51.3249 46.5994 52.9974 46.5994C55.8676 46.6199 58.6701 47.6063 60.7493 49.4351C63.0772 51.49 64.2072 54.223 64.2072 57.141C64.2072 58.189 66.0153 58.189 66.0153 57.141C66.0153 54.1819 65.0208 51.4078 62.919 49.1269C60.7945 46.8254 57.7209 45.387 54.4664 45.0376C52.6132 44.8322 50.6921 44.9349 48.8163 44.9554C45.4714 44.9965 42.2395 46.2295 39.8438 48.3666C37.2448 50.7092 35.9792 53.8326 35.9792 57.141C35.9792 57.5931 36.4086 57.9629 36.8832 57.9629H65.1112C66.2865 57.9629 66.2865 56.319 65.1112 56.319Z" fill="#3E4C71"/>
<path d="M33.2445 65.114C33.2445 68.258 30.442 70.7855 27.0068 70.7855C23.5715 70.7855 20.769 68.2374 20.769 65.114C20.769 61.9905 23.5715 59.4425 27.0068 59.4425C30.442 59.4425 33.2445 61.9905 33.2445 65.114Z" fill="#3E4C71"/>
<path d="M32.3405 65.3195C32.3179 67.3127 30.9618 69.1621 28.8826 69.8608C26.7581 70.5595 24.3625 70.0047 22.8935 68.4429C21.447 66.9018 21.2662 64.6208 22.3962 62.8742C23.5263 61.1275 25.8089 60.1617 28.0238 60.5521C30.5324 61.0247 32.3179 62.9974 32.3405 65.3195C32.3631 66.3675 34.1711 66.3675 34.1485 65.3195C34.1033 62.5865 32.2501 60.1822 29.4476 59.2164C26.6903 58.2712 23.3907 59.0726 21.5148 61.1686C19.6164 63.2851 19.3 66.3058 20.882 68.669C22.4414 71.0115 25.4699 72.2034 28.4306 71.6897C31.7529 71.1143 34.1259 68.3607 34.1485 65.3195C34.1711 64.2509 32.3631 64.2509 32.3405 65.3195Z" fill="#3E4C71"/>
<path d="M41.1321 84.9849H12.904V84.6355C12.904 78.553 18.3281 73.6213 25.0179 73.6213H29.0408C35.7306 73.6213 41.1547 78.553 41.1547 84.6355L41.1321 84.9849Z" fill="#3E4C71"/>
<path d="M41.1321 84.1629H12.904C13.1978 84.43 13.5142 84.7177 13.808 84.9849C13.808 82.4368 14.6217 79.9914 16.4975 78.0187C18.3959 76.0255 21.0854 74.7104 23.9783 74.4843C25.6507 74.361 27.3458 74.4432 29.0182 74.4432C31.8885 74.4638 34.6909 75.4501 36.7702 77.279C39.098 79.3339 40.2281 82.0669 40.2281 84.9849C40.2281 86.0328 42.0361 86.0328 42.0361 84.9849C42.0361 82.0258 41.0417 79.2517 38.9398 76.9708C36.8154 74.6693 33.7417 73.2308 30.4872 72.8815C28.634 72.676 26.7129 72.7788 24.8371 72.7993C21.4922 72.8404 18.2603 74.0733 15.8647 76.2104C13.2656 78.553 12 81.6765 12 84.9849C12 85.4369 12.4294 85.8068 12.904 85.8068H41.1321C42.3073 85.8068 42.3073 84.1629 41.1321 84.1629Z" fill="#3E4C71"/>
<path d="M80.2084 65.114C80.2084 68.258 77.4059 70.7855 73.9706 70.7855C70.5354 70.7855 67.7329 68.2374 67.7329 65.114C67.7329 61.9905 70.5354 59.4425 73.9706 59.4425C77.4059 59.4425 80.2084 61.9905 80.2084 65.114Z" fill="#3E4C71"/>
<path d="M79.3044 65.3195C79.2818 67.3127 77.9257 69.1621 75.8465 69.8608C73.722 70.5595 71.3264 70.0047 69.8574 68.4429C68.4109 66.9018 68.2301 64.6208 69.3601 62.8742C70.4902 61.1275 72.7728 60.1617 74.9877 60.5521C77.4963 61.0247 79.2592 62.9974 79.3044 65.3195C79.327 66.3675 81.135 66.3675 81.1124 65.3195C81.0672 62.5865 79.214 60.1822 76.4115 59.2164C73.6542 58.2712 70.3546 59.0726 68.4787 61.1686C66.5803 63.2851 66.2639 66.3058 67.8459 68.669C69.4053 71.0115 72.4338 72.2034 75.3945 71.6897C78.7168 71.1143 81.0898 68.3607 81.1124 65.3195C81.135 64.2509 79.327 64.2509 79.3044 65.3195Z" fill="#3E4C71"/>
<path d="M88.096 84.9849H59.8679V84.6355C59.8679 78.553 65.292 73.6213 71.9818 73.6213H76.0047C82.6945 73.6213 88.1186 78.553 88.1186 84.6355L88.096 84.9849Z" fill="#3E4C71"/>
<path d="M88.096 84.1629H59.8679C60.1617 84.43 60.4781 84.7177 60.7719 84.9849C60.7719 82.4368 61.5856 79.9914 63.4614 78.0187C65.3598 76.0255 68.0493 74.7104 70.9422 74.4843C72.6146 74.361 74.3097 74.4432 75.9821 74.4432C78.8524 74.4638 81.6548 75.4501 83.7341 77.279C86.0619 79.3339 87.192 82.0669 87.192 84.9849C87.192 86.0328 89 86.0328 89 84.9849C89 82.0258 88.0056 79.2517 85.9037 76.9708C83.7793 74.6693 80.7056 73.2308 77.4511 72.8815C75.5979 72.676 73.6768 72.7788 71.801 72.7993C68.4561 72.8404 65.2242 74.0733 62.8286 76.2104C60.2295 78.553 58.9639 81.6765 58.9639 84.9849C58.9639 85.4369 59.3933 85.8068 59.8679 85.8068H88.096C89.2486 85.8068 89.2486 84.1629 88.096 84.1629Z" fill="#3E4C71"/>
<path d="M56.7264 93.5332C56.7264 96.6772 53.924 99.2047 50.4887 99.2047C47.0534 99.2047 44.251 96.6567 44.251 93.5332C44.251 90.4098 47.0534 87.8617 50.4887 87.8617C53.924 87.8617 56.7264 90.3892 56.7264 93.5332Z" fill="#3E4C71"/>
<path d="M55.845 93.5332C55.8224 95.5265 54.4664 97.3759 52.3871 98.0745C50.2627 98.7732 47.867 98.2184 46.398 96.6567C44.9516 95.1155 44.7708 92.8346 45.9008 91.0879C47.0308 89.3412 49.3135 88.3754 51.5283 88.7659C54.0144 89.2179 55.7998 91.1906 55.845 93.5332C55.8676 94.5812 57.6757 94.5812 57.6531 93.5332C57.6079 90.8002 55.7546 88.396 52.9522 87.4302C50.1949 86.4849 46.8952 87.2863 45.0194 89.3823C43.1209 91.4989 42.8045 94.5196 44.3866 96.8827C45.946 99.2253 48.9745 100.417 51.9351 99.9034C55.2574 99.328 57.6305 96.5745 57.6531 93.5332C57.6531 92.4647 55.845 92.4647 55.845 93.5332Z" fill="#3E4C71"/>
<path d="M64.614 113.178H36.386V112.829C36.386 106.746 41.8101 101.814 48.4999 101.814H52.5227C59.2125 101.814 64.6366 106.746 64.6366 112.829L64.614 113.178Z" fill="#3E4C71"/>
<path d="M64.614 112.356H36.386C36.6798 112.623 36.9962 112.911 37.29 113.178C37.29 110.63 38.1036 108.185 39.9795 106.212C41.8779 104.219 44.5674 102.904 47.4602 102.678C49.1327 102.554 50.8277 102.636 52.5001 102.636C55.3704 102.657 58.1729 103.643 60.2521 105.472C62.58 107.527 63.71 110.26 63.71 113.178C63.71 114.226 65.5181 114.226 65.5181 113.178C65.5181 110.219 64.5236 107.445 62.4218 105.164C60.2973 102.862 57.2237 101.424 53.9692 101.075C52.1159 100.869 50.1949 100.972 48.319 100.993C44.9742 101.034 41.7423 102.267 39.3466 104.404C36.7476 106.746 35.4819 109.87 35.4819 113.178C35.4819 113.63 35.9114 114 36.386 114H64.614C65.7893 114 65.7893 112.356 64.614 112.356Z" fill="#3E4C71"/>
</svg>
