<svg width="100" height="143" viewBox="0 0 100 143" fill="none" xmlns="http://www.w3.org/2000/svg">
<!-- Removed white rectangle that was causing display issues -->
<rect width="100" height="143" fill="#3E4C71"/>
<path d="M38.9446 37.1883C38.9446 40.1834 36.5183 42.5911 33.5441 42.5911C30.5699 42.5911 28.1436 40.1638 28.1436 37.1883C28.1436 34.2129 30.5699 31.7856 33.5441 31.7856C36.5183 31.7856 38.9446 34.1933 38.9446 37.1883Z" fill="#FBFBFB"/>
<path d="M38.1619 37.1883C38.1424 39.0871 36.9684 40.8489 35.1682 41.5145C33.3289 42.18 31.2548 41.6515 29.9829 40.1638C28.7306 38.6956 28.5741 36.5228 29.5525 34.8589C30.5308 33.195 32.5071 32.275 34.4246 32.6469C36.5966 33.0775 38.1424 34.9763 38.1619 37.1883C38.1815 38.1867 39.7469 38.1867 39.7273 37.1883C39.6882 34.5848 38.0837 32.2945 35.6574 31.3745C33.2702 30.474 30.4134 31.2375 28.7893 33.2341C27.1457 35.2504 26.8718 38.128 28.2415 40.3791C29.5916 42.6107 32.2136 43.7461 34.7769 43.2567C37.6532 42.7086 39.7077 40.0855 39.7273 37.1883C39.7469 36.1704 38.1815 36.1704 38.1619 37.1883Z" fill="#FBFBFB"/>
<path d="M45.7735 55.9023H21.3343V55.5695C21.3343 49.7752 26.0304 45.0772 31.8222 45.0772H35.3052C41.097 45.0772 45.7931 49.7752 45.7931 55.5695L45.7735 55.9023Z" fill="#FBFBFB"/>
<path d="M45.7735 55.1193H21.3343C21.5887 55.3738 21.8626 55.6478 22.117 55.9023C22.117 53.475 22.8214 51.1455 24.4455 49.2663C26.0891 47.3675 28.4176 46.1147 30.9221 45.8993C32.3701 45.7819 33.8376 45.8602 35.2856 45.8602C37.7706 45.8798 40.1969 46.8194 41.9971 48.5616C44.0125 50.5191 44.9908 53.1226 44.9908 55.9023C44.9908 56.9006 46.5562 56.9006 46.5562 55.9023C46.5562 53.0835 45.6953 50.4408 43.8755 48.2679C42.0362 46.0755 39.3751 44.7052 36.5574 44.3725C34.953 44.1767 33.2898 44.2746 31.6657 44.2942C28.7698 44.3333 25.9717 45.5078 23.8976 47.5437C21.6474 49.7752 20.5516 52.7507 20.5516 55.9023C20.5516 56.3329 20.9234 56.6853 21.3343 56.6853H45.7735C46.7714 56.6853 46.7714 55.1193 45.7735 55.1193Z" fill="#FBFBFB"/>
<path d="M73.6761 37.1883C73.6761 40.1834 71.2498 42.5911 68.2756 42.5911C65.3014 42.5911 62.8751 40.1638 62.8751 37.1883C62.8751 34.2129 65.3014 31.7856 68.2756 31.7856C71.2498 31.7856 73.6761 34.1933 73.6761 37.1883Z" fill="#FBFBFB"/>
<path d="M72.8934 37.1883C72.8739 39.0871 71.6998 40.8489 69.8997 41.5145C68.0604 42.18 65.9863 41.6515 64.7144 40.1638C63.4621 38.6956 63.3056 36.5228 64.2839 34.8589C65.2623 33.195 67.2385 32.275 69.1561 32.6469C71.3085 33.0775 72.8543 34.9763 72.8934 37.1883C72.913 38.1867 74.4783 38.1867 74.4588 37.1883C74.4196 34.5848 72.8152 32.2945 70.3888 31.3745C68.0017 30.474 65.1449 31.2375 63.5208 33.2341C61.8772 35.2504 61.6032 38.128 62.9729 40.3791C64.3231 42.6107 66.945 43.7461 69.5083 43.2567C72.3847 42.7086 74.4392 40.0855 74.4588 37.1883C74.4783 36.1704 72.8934 36.1704 72.8934 37.1883Z" fill="#FBFBFB"/>
<path d="M80.505 55.9023H56.0658V55.5695C56.0658 49.7752 60.7619 45.0772 66.5537 45.0772H70.0366C75.8285 45.0772 80.5246 49.7752 80.5246 55.5695L80.505 55.9023Z" fill="#FBFBFB"/>
<path d="M80.505 55.1193H56.0658L56.8485 55.9023C56.8485 53.475 57.5529 51.1455 59.1769 49.2663C60.8206 47.3675 63.149 46.1147 65.6536 45.8993C67.1016 45.7819 68.5691 45.8602 70.0171 45.8602C72.5021 45.8798 74.9284 46.8194 76.7286 48.5616C78.744 50.5191 79.7223 53.1226 79.7223 55.9023C79.7223 56.9006 81.2877 56.9006 81.2877 55.9023C81.2877 53.0835 80.4267 50.4408 78.607 48.2679C76.7677 46.0755 74.1066 44.7052 71.2889 44.3725C69.6844 44.1767 68.0212 44.2746 66.3972 44.2942C63.5012 44.3333 60.7032 45.5078 58.6291 47.5437C56.3788 49.7752 55.2831 52.7507 55.2831 55.9023C55.2831 56.3329 55.6549 56.6853 56.0658 56.6853H80.505C81.5029 56.6853 81.5029 55.1193 80.505 55.1193Z" fill="#FBFBFB"/>
<path d="M21.393 65.9836C21.393 68.9786 18.9667 71.3863 15.9925 71.3863C13.0183 71.3863 10.592 68.959 10.592 65.9836C10.592 63.0081 13.0183 60.5808 15.9925 60.5808C18.9667 60.5808 21.393 63.0081 21.393 65.9836Z" fill="#FBFBFB"/>
<path d="M20.6103 65.9836C20.5908 67.8824 19.4167 69.6441 17.6166 70.3097C15.7773 70.9752 13.7032 70.4467 12.4313 68.959C11.179 67.4908 11.0225 65.318 12.0008 63.6541C12.9792 61.9902 14.9555 61.0702 16.873 61.4421C19.045 61.8923 20.5712 63.7716 20.6103 65.9836C20.6299 66.9819 22.1953 66.9819 22.1757 65.9836C22.1366 63.38 20.5321 61.0897 18.1057 60.1697C15.7186 59.2692 12.8618 60.0327 11.2377 62.0294C9.59409 64.0456 9.32015 66.9232 10.6898 69.1743C12.04 71.4059 14.6619 72.5413 17.2252 72.0519C20.1016 71.5038 22.1561 68.8807 22.1757 65.9836C22.1953 64.9656 20.6103 64.9656 20.6103 65.9836Z" fill="#FBFBFB"/>
<path d="M28.2219 84.7171H3.78268V84.3843C3.78268 78.59 8.47877 73.892 14.2706 73.892H17.7535C23.5454 73.892 28.2415 78.59 28.2415 84.3843L28.2219 84.7171Z" fill="#FBFBFB"/>
<path d="M28.2219 83.9341H3.78268C4.03705 84.1885 4.31099 84.4626 4.56536 84.7171C4.56536 82.2897 5.26977 79.9603 6.89384 78.0811C8.53747 76.1823 10.8659 74.9294 13.3705 74.7141C14.8185 74.5967 16.286 74.675 17.734 74.675C20.219 74.6945 22.6453 75.6342 24.4455 77.3764C26.4609 79.3339 27.4392 81.9374 27.4392 84.7171C27.4392 85.7154 29.0046 85.7154 29.0046 84.7171C29.0046 81.8982 28.1436 79.2556 26.3239 77.0827C24.4846 74.8903 21.8235 73.52 19.0058 73.1872C17.4013 72.9915 15.7381 73.0894 14.1141 73.1089C11.2182 73.1481 8.42006 74.3226 6.34596 76.3584C4.09575 78.59 3 81.5655 3 84.7171C3 85.1477 3.37177 85.5001 3.78268 85.5001H28.2219C29.2198 85.5001 29.2198 83.9341 28.2219 83.9341Z" fill="#FBFBFB"/>
<path d="M89.3884 66.8253C89.3884 69.8203 86.9621 72.2281 83.9879 72.2281C80.9942 72.2281 78.5874 69.8007 78.5874 66.8253C78.5874 63.8499 81.0137 61.4225 83.9879 61.4225C86.9817 61.4225 89.3884 63.8303 89.3884 66.8253Z" fill="#FBFBFB"/>
<path d="M88.6057 66.8253C88.5862 68.7241 87.4121 70.4859 85.612 71.1514C83.7727 71.817 81.6986 71.2885 80.4267 69.8007C79.1744 68.3326 79.0179 66.1597 79.9962 64.4958C80.9746 62.8319 82.9509 61.9119 84.8684 62.2838C87.0404 62.7145 88.5862 64.6133 88.6057 66.8253C88.6253 67.8236 90.1907 67.8236 90.1711 66.8253C90.132 64.2218 88.5275 61.9315 86.1012 61.0114C83.714 60.111 80.8572 60.8744 79.2331 62.8711C77.5895 64.8873 77.3156 67.7649 78.6852 70.0161C80.0354 72.2476 82.6574 73.383 85.2206 72.8936C88.097 72.3455 90.1515 69.7224 90.1711 66.8253C90.1907 65.8074 88.6253 65.8074 88.6057 66.8253Z" fill="#FBFBFB"/>
<path d="M96.2173 85.5392H71.7781V85.2065C71.7781 79.4122 76.4742 74.7141 82.266 74.7141H85.749C91.5408 74.7141 96.2369 79.4122 96.2369 85.2065L96.2173 85.5392Z" fill="#FBFBFB"/>
<path d="M96.2173 84.7562H71.7781C72.0325 85.0107 72.3064 85.2848 72.5608 85.5392C72.5608 83.1119 73.2652 80.7825 74.8893 78.9032C76.5329 77.0044 78.8614 75.7516 81.3659 75.5363C82.8139 75.4188 84.2814 75.4971 85.7294 75.4971C88.2144 75.5167 90.6407 76.4563 92.4409 78.1985C94.4563 80.156 95.4346 82.7596 95.4346 85.5392C95.4346 86.5376 97 86.5376 97 85.5392C97 82.7204 96.139 80.0777 94.3193 77.9049C92.48 75.7125 89.8189 74.3422 87.0012 74.0094C85.3967 73.8137 83.7335 73.9115 82.1095 73.9311C79.2136 73.9703 76.4155 75.1448 74.3414 77.1806C72.0912 79.4122 70.9954 82.3876 70.9954 85.5392C70.9954 85.9699 71.3672 86.3223 71.7781 86.3223H96.2173C97.2348 86.3223 97.2348 84.7562 96.2173 84.7562Z" fill="#FBFBFB"/>
<path d="M38.1619 94.8179C38.1619 97.8129 35.7356 100.221 32.7614 100.221C29.7873 100.221 27.3609 97.7934 27.3609 94.8179C27.3609 91.8425 29.7873 89.4151 32.7614 89.4151C35.7356 89.4151 38.1619 91.8425 38.1619 94.8179Z" fill="#FBFBFB"/>
<path d="M37.3793 95.0137C37.3597 96.9125 36.1857 98.6742 34.3855 99.3398C32.5462 100.005 30.4721 99.4768 29.2002 97.9891C27.948 96.521 27.7914 94.3481 28.7698 92.6842C29.7481 91.0203 31.7244 90.1003 33.642 90.4722C35.7943 90.9224 37.3401 92.8017 37.3793 95.0137C37.3988 96.012 38.9642 96.012 38.9446 95.0137C38.9055 92.4102 37.301 90.1198 34.8747 89.1998C32.4875 88.2993 29.6307 89.0628 28.0067 91.0595C26.363 93.0757 26.0891 95.9533 27.4588 98.2044C28.8089 100.436 31.4309 101.571 33.9942 101.082C36.8705 100.534 38.9251 97.9108 38.9446 95.0137C38.9642 93.9957 37.3793 93.9957 37.3793 95.0137Z" fill="#FBFBFB"/>
<path d="M44.9908 113.747H20.5516V113.414C20.5516 107.62 25.2477 102.922 31.0395 102.922H34.5225C40.3143 102.922 45.0104 107.62 45.0104 113.414L44.9908 113.747Z" fill="#FBFBFB"/>
<path d="M44.9908 112.964H20.5321C20.7864 113.219 21.0604 113.493 21.3147 113.747C21.3147 111.32 22.0191 108.99 23.6432 107.111C25.2868 105.212 27.6153 103.96 30.1199 103.744C31.5679 103.627 33.0354 103.705 34.4833 103.705C36.9684 103.725 39.3947 104.664 41.1948 106.406C43.2102 108.364 44.1886 110.967 44.1886 113.747C44.1886 114.746 45.7539 114.746 45.7539 113.747C45.7539 110.928 44.893 108.286 43.0733 106.113C41.234 103.92 38.5729 102.55 35.7552 102.217C34.1507 102.022 32.4875 102.119 30.8634 102.139C27.9675 102.178 25.1694 103.353 23.0953 105.389C20.8451 107.62 19.7494 110.596 19.7494 113.747C19.7494 114.178 20.1211 114.53 20.5321 114.53H44.9713C45.9888 114.53 45.9888 112.964 44.9908 112.964Z" fill="#FBFBFB"/>
<path d="M72.7369 95.3073C72.7369 98.3023 70.3106 100.71 67.3364 100.71C64.3622 100.71 61.9359 98.2827 61.9359 95.3073C61.9359 92.3319 64.3622 89.9045 67.3364 89.9045C70.3106 89.9045 72.7369 92.3123 72.7369 95.3073Z" fill="#FBFBFB"/>
<path d="M71.9542 95.503C71.9346 97.4018 70.7606 99.1636 68.9604 99.8292C67.1211 100.495 65.047 99.9662 63.7752 98.4785C62.5229 97.0103 62.3664 94.8375 63.3447 93.1736C64.3231 91.5097 66.2993 90.5896 68.2169 90.9616C70.3888 91.3922 71.9346 93.2715 71.9542 95.503C71.9738 96.5014 73.5391 96.5014 73.5196 95.503C73.4804 92.8995 71.8759 90.6092 69.4496 89.6892C67.0624 88.7887 64.2057 89.5522 62.5816 91.5488C60.938 93.5651 60.664 96.4427 62.0337 98.6938C63.3838 100.925 66.0058 102.061 68.5691 101.571C71.4455 101.023 73.5 98.4002 73.5196 95.503C73.5391 94.4851 71.9738 94.4851 71.9542 95.503Z" fill="#FBFBFB"/>
<path d="M79.5658 114.217H55.1266V113.884C55.1266 108.09 59.8226 103.392 65.6145 103.392H69.0974C74.8893 103.392 79.5853 108.09 79.5853 113.884L79.5658 114.217Z" fill="#FBFBFB"/>
<path d="M79.5658 113.434H55.1266C55.3809 113.688 55.6549 113.963 55.9092 114.217C55.9092 111.79 56.6136 109.46 58.2377 107.581C59.8813 105.682 62.2098 104.429 64.7144 104.214C66.1624 104.097 67.6299 104.175 69.0778 104.175C71.5629 104.194 73.9892 105.134 75.7893 106.876C77.8047 108.834 78.7831 111.437 78.7831 114.217C78.7831 115.215 80.3485 115.215 80.3485 114.217C80.3485 111.398 79.4875 108.755 77.6678 106.583C75.8285 104.39 73.1674 103.02 70.3497 102.687C68.7452 102.491 67.082 102.589 65.458 102.609C62.562 102.648 59.7639 103.823 57.6898 105.858C55.4396 108.09 54.3439 111.065 54.3439 114.217C54.3439 114.648 54.7157 115 55.1266 115H79.5658C80.5637 115 80.5637 113.434 79.5658 113.434Z" fill="#FBFBFB"/>
</svg>
