<svg width="108" height="153" viewBox="0 0 108 153" fill="none" xmlns="http://www.w3.org/2000/svg">
<rect x="4" width="100" height="145" fill="#D8D9DA"/>
<path d="M42.9446 37.1883C42.9446 40.1834 40.5183 42.5911 37.5441 42.5911C34.5699 42.5911 32.1436 40.1638 32.1436 37.1883C32.1436 34.2129 34.5699 31.7856 37.5441 31.7856C40.5183 31.7856 42.9446 34.1933 42.9446 37.1883Z" fill="#3E4C71"/>
<path d="M42.1619 37.1883C42.1424 39.0871 40.9684 40.8489 39.1682 41.5145C37.3289 42.18 35.2548 41.6515 33.9829 40.1638C32.7306 38.6956 32.5741 36.5228 33.5525 34.8589C34.5308 33.195 36.5071 32.275 38.4246 32.6469C40.5966 33.0775 42.1424 34.9763 42.1619 37.1883C42.1815 38.1867 43.7469 38.1867 43.7273 37.1883C43.6882 34.5848 42.0837 32.2945 39.6574 31.3745C37.2702 30.474 34.4134 31.2375 32.7893 33.2341C31.1457 35.2504 30.8718 38.128 32.2415 40.3791C33.5916 42.6107 36.2136 43.7461 38.7769 43.2567C41.6532 42.7086 43.7077 40.0855 43.7273 37.1883C43.7469 36.1704 42.1815 36.1704 42.1619 37.1883Z" fill="#3E4C71"/>
<path d="M49.7735 55.9023H25.3343V55.5695C25.3343 49.7752 30.0304 45.0772 35.8222 45.0772H39.3052C45.097 45.0772 49.7931 49.7752 49.7931 55.5695L49.7735 55.9023Z" fill="#3E4C71"/>
<path d="M49.7735 55.1193H25.3343C25.5887 55.3738 25.8626 55.6478 26.117 55.9023C26.117 53.475 26.8214 51.1455 28.4455 49.2663C30.0891 47.3675 32.4176 46.1147 34.9221 45.8993C36.3701 45.7819 37.8376 45.8602 39.2856 45.8602C41.7706 45.8798 44.1969 46.8194 45.9971 48.5616C48.0125 50.5191 48.9908 53.1226 48.9908 55.9023C48.9908 56.9006 50.5562 56.9006 50.5562 55.9023C50.5562 53.0835 49.6953 50.4408 47.8755 48.2679C46.0362 46.0755 43.3751 44.7052 40.5574 44.3725C38.953 44.1767 37.2898 44.2746 35.6657 44.2942C32.7698 44.3333 29.9717 45.5078 27.8976 47.5437C25.6474 49.7752 24.5516 52.7507 24.5516 55.9023C24.5516 56.3329 24.9234 56.6853 25.3343 56.6853H49.7735C50.7714 56.6853 50.7714 55.1193 49.7735 55.1193Z" fill="#3E4C71"/>
<path d="M77.6761 37.1883C77.6761 40.1834 75.2498 42.5911 72.2756 42.5911C69.3014 42.5911 66.8751 40.1638 66.8751 37.1883C66.8751 34.2129 69.3014 31.7856 72.2756 31.7856C75.2498 31.7856 77.6761 34.1933 77.6761 37.1883Z" fill="#3E4C71"/>
<path d="M76.8934 37.1883C76.8739 39.0871 75.6998 40.8489 73.8997 41.5145C72.0604 42.18 69.9863 41.6515 68.7144 40.1638C67.4621 38.6956 67.3056 36.5228 68.2839 34.8589C69.2623 33.195 71.2385 32.275 73.1561 32.6469C75.3085 33.0775 76.8543 34.9763 76.8934 37.1883C76.913 38.1867 78.4783 38.1867 78.4588 37.1883C78.4196 34.5848 76.8152 32.2945 74.3888 31.3745C72.0017 30.474 69.1449 31.2375 67.5208 33.2341C65.8772 35.2504 65.6032 38.128 66.9729 40.3791C68.3231 42.6107 70.945 43.7461 73.5083 43.2567C76.3847 42.7086 78.4392 40.0855 78.4588 37.1883C78.4783 36.1704 76.8934 36.1704 76.8934 37.1883Z" fill="#3E4C71"/>
<path d="M84.505 55.9023H60.0658V55.5695C60.0658 49.7752 64.7619 45.0772 70.5537 45.0772H74.0366C79.8285 45.0772 84.5246 49.7752 84.5246 55.5695L84.505 55.9023Z" fill="#3E4C71"/>
<path d="M84.505 55.1193H60.0658L60.8485 55.9023C60.8485 53.475 61.5529 51.1455 63.1769 49.2663C64.8206 47.3675 67.149 46.1147 69.6536 45.8993C71.1016 45.7819 72.5691 45.8602 74.0171 45.8602C76.5021 45.8798 78.9284 46.8194 80.7286 48.5616C82.744 50.5191 83.7223 53.1226 83.7223 55.9023C83.7223 56.9006 85.2877 56.9006 85.2877 55.9023C85.2877 53.0835 84.4267 50.4408 82.607 48.2679C80.7677 46.0755 78.1066 44.7052 75.2889 44.3725C73.6844 44.1767 72.0212 44.2746 70.3972 44.2942C67.5012 44.3333 64.7032 45.5078 62.6291 47.5437C60.3788 49.7752 59.2831 52.7507 59.2831 55.9023C59.2831 56.3329 59.6549 56.6853 60.0658 56.6853H84.505C85.5029 56.6853 85.5029 55.1193 84.505 55.1193Z" fill="#3E4C71"/>
<path d="M25.393 65.9836C25.393 68.9786 22.9667 71.3863 19.9925 71.3863C17.0183 71.3863 14.592 68.959 14.592 65.9836C14.592 63.0081 17.0183 60.5808 19.9925 60.5808C22.9667 60.5808 25.393 63.0081 25.393 65.9836Z" fill="#3E4C71"/>
<path d="M24.6103 65.9836C24.5908 67.8824 23.4167 69.6441 21.6166 70.3097C19.7773 70.9752 17.7032 70.4467 16.4313 68.959C15.179 67.4908 15.0225 65.318 16.0008 63.6541C16.9792 61.9902 18.9555 61.0702 20.873 61.4421C23.045 61.8923 24.5712 63.7716 24.6103 65.9836C24.6299 66.9819 26.1953 66.9819 26.1757 65.9836C26.1366 63.38 24.5321 61.0897 22.1057 60.1697C19.7186 59.2692 16.8618 60.0327 15.2377 62.0294C13.5941 64.0456 13.3202 66.9232 14.6898 69.1743C16.04 71.4059 18.6619 72.5413 21.2252 72.0519C24.1016 71.5038 26.1561 68.8807 26.1757 65.9836C26.1953 64.9656 24.6103 64.9656 24.6103 65.9836Z" fill="#3E4C71"/>
<path d="M32.2219 84.7171H7.78268V84.3843C7.78268 78.59 12.4788 73.892 18.2706 73.892H21.7535C27.5454 73.892 32.2415 78.59 32.2415 84.3843L32.2219 84.7171Z" fill="#3E4C71"/>
<path d="M32.2219 83.9341H7.78268C8.03705 84.1885 8.31099 84.4626 8.56536 84.7171C8.56536 82.2897 9.26977 79.9603 10.8938 78.0811C12.5375 76.1823 14.8659 74.9294 17.3705 74.7141C18.8185 74.5967 20.286 74.675 21.734 74.675C24.219 74.6945 26.6453 75.6342 28.4455 77.3764C30.4609 79.3339 31.4392 81.9374 31.4392 84.7171C31.4392 85.7154 33.0046 85.7154 33.0046 84.7171C33.0046 81.8982 32.1436 79.2556 30.3239 77.0827C28.4846 74.8903 25.8235 73.52 23.0058 73.1872C21.4013 72.9915 19.7381 73.0894 18.1141 73.1089C15.2182 73.1481 12.4201 74.3226 10.346 76.3584C8.09575 78.59 7 81.5655 7 84.7171C7 85.1477 7.37177 85.5001 7.78268 85.5001H32.2219C33.2198 85.5001 33.2198 83.9341 32.2219 83.9341Z" fill="#3E4C71"/>
<path d="M93.3884 66.8253C93.3884 69.8203 90.9621 72.2281 87.9879 72.2281C84.9942 72.2281 82.5874 69.8007 82.5874 66.8253C82.5874 63.8499 85.0137 61.4225 87.9879 61.4225C90.9817 61.4225 93.3884 63.8303 93.3884 66.8253Z" fill="#3E4C71"/>
<path d="M92.6057 66.8253C92.5862 68.7241 91.4121 70.4859 89.612 71.1514C87.7727 71.817 85.6986 71.2885 84.4267 69.8007C83.1744 68.3326 83.0179 66.1597 83.9962 64.4958C84.9746 62.8319 86.9509 61.9119 88.8684 62.2838C91.0404 62.7145 92.5862 64.6133 92.6057 66.8253C92.6253 67.8236 94.1907 67.8236 94.1711 66.8253C94.132 64.2218 92.5275 61.9315 90.1012 61.0114C87.714 60.111 84.8572 60.8744 83.2331 62.8711C81.5895 64.8873 81.3156 67.7649 82.6852 70.0161C84.0354 72.2476 86.6574 73.383 89.2206 72.8936C92.097 72.3455 94.1515 69.7224 94.1711 66.8253C94.1907 65.8074 92.6253 65.8074 92.6057 66.8253Z" fill="#3E4C71"/>
<path d="M100.217 85.5392H75.7781V85.2065C75.7781 79.4122 80.4742 74.7141 86.266 74.7141H89.749C95.5408 74.7141 100.237 79.4122 100.237 85.2065L100.217 85.5392Z" fill="#3E4C71"/>
<path d="M100.217 84.7562H75.7781C76.0325 85.0107 76.3064 85.2848 76.5608 85.5392C76.5608 83.1119 77.2652 80.7825 78.8893 78.9032C80.5329 77.0044 82.8614 75.7516 85.3659 75.5363C86.8139 75.4188 88.2814 75.4971 89.7294 75.4971C92.2144 75.5167 94.6407 76.4563 96.4409 78.1985C98.4563 80.156 99.4346 82.7596 99.4346 85.5392C99.4346 86.5376 101 86.5376 101 85.5392C101 82.7204 100.139 80.0777 98.3193 77.9049C96.48 75.7125 93.8189 74.3422 91.0012 74.0094C89.3967 73.8137 87.7335 73.9115 86.1095 73.9311C83.2136 73.9703 80.4155 75.1448 78.3414 77.1806C76.0912 79.4122 74.9954 82.3876 74.9954 85.5392C74.9954 85.9699 75.3672 86.3223 75.7781 86.3223H100.217C101.235 86.3223 101.235 84.7562 100.217 84.7562Z" fill="#3E4C71"/>
<path d="M42.1619 94.8179C42.1619 97.8129 39.7356 100.221 36.7614 100.221C33.7873 100.221 31.3609 97.7934 31.3609 94.8179C31.3609 91.8425 33.7873 89.4151 36.7614 89.4151C39.7356 89.4151 42.1619 91.8425 42.1619 94.8179Z" fill="#3E4C71"/>
<path d="M41.3793 95.0137C41.3597 96.9125 40.1857 98.6742 38.3855 99.3398C36.5462 100.005 34.4721 99.4768 33.2002 97.9891C31.948 96.521 31.7914 94.3481 32.7698 92.6842C33.7481 91.0203 35.7244 90.1003 37.642 90.4722C39.7943 90.9224 41.3401 92.8017 41.3793 95.0137C41.3988 96.012 42.9642 96.012 42.9446 95.0137C42.9055 92.4102 41.301 90.1198 38.8747 89.1998C36.4875 88.2993 33.6307 89.0628 32.0067 91.0595C30.363 93.0757 30.0891 95.9533 31.4588 98.2044C32.8089 100.436 35.4309 101.571 37.9942 101.082C40.8705 100.534 42.9251 97.9108 42.9446 95.0137C42.9642 93.9957 41.3793 93.9957 41.3793 95.0137Z" fill="#3E4C71"/>
<path d="M48.9908 113.747H24.5516V113.414C24.5516 107.62 29.2477 102.922 35.0395 102.922H38.5225C44.3143 102.922 49.0104 107.62 49.0104 113.414L48.9908 113.747Z" fill="#3E4C71"/>
<path d="M48.9908 112.964H24.5321C24.7864 113.219 25.0604 113.493 25.3147 113.747C25.3147 111.32 26.0191 108.99 27.6432 107.111C29.2868 105.212 31.6153 103.96 34.1199 103.744C35.5679 103.627 37.0354 103.705 38.4833 103.705C40.9684 103.725 43.3947 104.664 45.1948 106.406C47.2102 108.364 48.1886 110.967 48.1886 113.747C48.1886 114.746 49.7539 114.746 49.7539 113.747C49.7539 110.928 48.893 108.286 47.0733 106.113C45.234 103.92 42.5729 102.55 39.7552 102.217C38.1507 102.022 36.4875 102.119 34.8634 102.139C31.9675 102.178 29.1694 103.353 27.0953 105.389C24.8451 107.62 23.7494 110.596 23.7494 113.747C23.7494 114.178 24.1211 114.53 24.5321 114.53H48.9713C49.9888 114.53 49.9888 112.964 48.9908 112.964Z" fill="#3E4C71"/>
<path d="M76.7369 95.3073C76.7369 98.3023 74.3106 100.71 71.3364 100.71C68.3622 100.71 65.9359 98.2827 65.9359 95.3073C65.9359 92.3319 68.3622 89.9045 71.3364 89.9045C74.3106 89.9045 76.7369 92.3123 76.7369 95.3073Z" fill="#3E4C71"/>
<path d="M75.9542 95.503C75.9346 97.4018 74.7606 99.1636 72.9604 99.8292C71.1211 100.495 69.047 99.9662 67.7752 98.4785C66.5229 97.0103 66.3664 94.8375 67.3447 93.1736C68.3231 91.5097 70.2993 90.5896 72.2169 90.9616C74.3888 91.3922 75.9346 93.2715 75.9542 95.503C75.9738 96.5014 77.5391 96.5014 77.5196 95.503C77.4804 92.8995 75.8759 90.6092 73.4496 89.6892C71.0624 88.7887 68.2057 89.5522 66.5816 91.5488C64.938 93.5651 64.664 96.4427 66.0337 98.6938C67.3838 100.925 70.0058 102.061 72.5691 101.571C75.4455 101.023 77.5 98.4002 77.5196 95.503C77.5391 94.4851 75.9738 94.4851 75.9542 95.503Z" fill="#3E4C71"/>
<path d="M83.5658 114.217H59.1266V113.884C59.1266 108.09 63.8226 103.392 69.6145 103.392H73.0974C78.8893 103.392 83.5853 108.09 83.5853 113.884L83.5658 114.217Z" fill="#3E4C71"/>
<path d="M83.5658 113.434H59.1266C59.3809 113.688 59.6549 113.963 59.9092 114.217C59.9092 111.79 60.6136 109.46 62.2377 107.581C63.8813 105.682 66.2098 104.429 68.7144 104.214C70.1624 104.097 71.6299 104.175 73.0778 104.175C75.5629 104.194 77.9892 105.134 79.7893 106.876C81.8047 108.834 82.7831 111.437 82.7831 114.217C82.7831 115.215 84.3485 115.215 84.3485 114.217C84.3485 111.398 83.4875 108.755 81.6678 106.583C79.8285 104.39 77.1674 103.02 74.3497 102.687C72.7452 102.491 71.082 102.589 69.458 102.609C66.562 102.648 63.7639 103.823 61.6898 105.858C59.4396 108.09 58.3439 111.065 58.3439 114.217C58.3439 114.648 58.7157 115 59.1266 115H83.5658C84.5637 115 84.5637 113.434 83.5658 113.434Z" fill="#3E4C71"/>
</svg>