<svg width="100" height="145" viewBox="0 0 100 145" fill="none" xmlns="http://www.w3.org/2000/svg">
<rect width="100" height="145" fill="#D9D9D9"/>
<path d="M34.9843 63.6933C34.9843 67.5383 31.8204 70.6294 27.9421 70.6294C24.0638 70.6294 20.8999 67.5132 20.8999 63.6933C20.8999 59.8734 24.0638 56.7572 27.9421 56.7572C31.8204 56.7572 34.9843 59.8734 34.9843 63.6933Z" fill="#3E4C71"/>
<path d="M33.9637 63.9446C33.9382 66.3823 32.4073 68.6441 30.0599 69.4985C27.6614 70.353 24.9568 69.6744 23.2983 67.7645C21.6654 65.8797 21.4612 63.0902 22.737 60.9541C24.0128 58.8179 26.5898 57.6368 29.0903 58.1143C31.9225 58.6923 33.9382 61.1048 33.9637 63.9446C33.9892 65.2263 36.0304 65.2263 36.0049 63.9446C35.9539 60.6022 33.8616 57.6619 30.6977 56.4808C27.5849 55.3248 23.8597 56.3049 21.7419 58.8682C19.5986 61.4567 19.2414 65.1509 21.0275 68.0409C22.788 70.9058 26.2071 72.3634 29.5496 71.7352C33.3003 71.0315 35.9794 67.664 36.0049 63.9446C36.0304 62.6378 33.9892 62.6378 33.9637 63.9446Z" fill="#3E4C71"/>
<path d="M43.8891 87.9948H12.0206V87.5675C12.0206 80.1288 18.1443 74.0975 25.6968 74.0975H30.2385C37.791 74.0975 43.9146 80.1288 43.9146 87.5675L43.8891 87.9948Z" fill="#3E4C71"/>
<path d="M43.8891 86.9895H12.0206C12.3523 87.3162 12.7095 87.6681 13.0412 87.9948C13.0412 84.8786 13.9598 81.888 16.0775 79.4754C18.2208 77.0377 21.2571 75.4294 24.5231 75.1529C26.4112 75.0022 28.3248 75.1027 30.213 75.1027C33.4534 75.1278 36.6173 76.3341 38.9647 78.5707C41.5927 81.0838 42.8685 84.4262 42.8685 87.9948C42.8685 89.2764 44.9097 89.2764 44.9097 87.9948C44.9097 84.3759 43.787 80.9833 41.4141 78.1938C39.0157 75.3791 35.5456 73.62 31.8714 73.1927C29.7792 72.9414 27.6104 73.0671 25.4926 73.0922C21.7164 73.1425 18.0677 74.6503 15.3631 77.2639C12.4288 80.1288 11 83.9487 11 87.9948C11 88.5476 11.4848 89 12.0206 89H43.8891C45.2159 89 45.2159 86.9895 43.8891 86.9895Z" fill="#3E4C71"/>
<path d="M79.0746 63.6933C79.0746 67.5383 75.9107 70.6294 72.0324 70.6294C68.1541 70.6294 64.9902 67.5132 64.9902 63.6933C64.9902 59.8734 68.1541 56.7572 72.0324 56.7572C75.9107 56.7572 79.0746 59.8734 79.0746 63.6933Z" fill="#3E4C71"/>
<path d="M78.054 63.9446C78.0285 66.3823 76.4975 68.6441 74.1501 69.4985C71.7517 70.353 69.0471 69.6744 67.3886 67.7645C65.7556 65.8797 65.5515 63.0902 66.8273 60.9541C68.103 58.8179 70.6801 57.6368 73.1806 58.1143C76.0128 58.6923 78.0029 61.1048 78.054 63.9446C78.0795 65.2263 80.1207 65.2263 80.0952 63.9446C80.0442 60.6022 77.9519 57.6619 74.788 56.4808C71.6752 55.3248 67.95 56.3049 65.8322 58.8682C63.6889 61.4567 63.3317 65.1509 65.1178 68.0409C66.8783 70.9058 70.2974 72.3634 73.6398 71.7352C77.3906 71.0315 80.0697 67.664 80.0952 63.9446C80.1207 62.6378 78.0795 62.6378 78.054 63.9446Z" fill="#3E4C71"/>
<path d="M87.9794 87.9948H56.1109V87.5675C56.1109 80.1288 62.2345 74.0975 69.7871 74.0975H74.3288C81.8813 74.0975 88.0049 80.1288 88.0049 87.5675L87.9794 87.9948Z" fill="#3E4C71"/>
<path d="M87.9794 86.9895H56.1109C56.4426 87.3162 56.7998 87.6681 57.1315 87.9948C57.1315 84.8786 58.05 81.888 60.1678 79.4754C62.3111 77.0377 65.3474 75.4294 68.6133 75.1529C70.5015 75.0022 72.4151 75.1027 74.3032 75.1027C77.5437 75.1278 80.7076 76.3341 83.055 78.5707C85.683 81.0838 86.9588 84.4262 86.9588 87.9948C86.9588 89.2764 89 89.2764 89 87.9948C89 84.3759 87.8773 80.9833 85.5044 78.1938C83.106 75.3791 79.6359 73.62 75.9617 73.1927C73.8695 72.9414 71.7007 73.0671 69.5829 73.0922C65.8067 73.1425 62.158 74.6503 59.4534 77.2639C56.5191 80.1288 55.0903 83.9487 55.0903 87.9948C55.0903 88.5476 55.5751 89 56.1109 89H87.9794C89.2807 89 89.2807 86.9895 87.9794 86.9895Z" fill="#3E4C71"/>
</svg>
