<svg width="100" height="145" viewBox="0 0 100 145" fill="none" xmlns="http://www.w3.org/2000/svg">
<rect width="100" height="145" fill="#D9D9D9"/>
<path d="M55.8044 64.4602C55.8044 68.1887 53.1919 71.1861 49.9895 71.1861C46.7871 71.1861 44.1746 68.1643 44.1746 64.4602C44.1746 60.7561 46.7871 57.7343 49.9895 57.7343C53.1919 57.7343 55.8044 60.7561 55.8044 64.4602Z" fill="#3E4C71"/>
<path d="M54.9616 64.7039C54.9406 67.0677 53.6764 69.2609 51.7381 70.0895C49.7577 70.918 47.5244 70.2601 46.155 68.408C44.8066 66.5803 44.6381 63.8753 45.6915 61.8039C46.7449 59.7325 48.8728 58.5872 50.9375 59.0502C53.2761 59.6107 54.9406 61.9501 54.9616 64.7039C54.9827 65.9467 56.6682 65.9467 56.6471 64.7039C56.605 61.4628 54.8773 58.6116 52.2649 57.4662C49.6945 56.3452 46.6185 57.2956 44.8698 59.7813C43.1001 62.2913 42.8051 65.8736 44.2799 68.6761C45.7336 71.4541 48.5568 72.8676 51.3168 72.2583C54.4138 71.576 56.626 68.3105 56.6471 64.7039C56.6682 63.4367 54.9827 63.4367 54.9616 64.7039Z" fill="#3E4C71"/>
<path d="M63.1573 88.0252H36.8427V87.611C36.8427 80.3977 41.8992 74.549 48.1354 74.549H51.8856C58.1219 74.549 63.1783 80.3977 63.1783 87.611L63.1573 88.0252Z" fill="#3E4C71"/>
<path d="M63.1573 87.0505H36.8427C37.1166 87.3673 37.4116 87.7084 37.6855 88.0252C37.6855 85.0034 38.4439 82.1035 40.1926 79.7641C41.9624 77.4002 44.4695 75.8406 47.1663 75.5726C48.7254 75.4263 50.3055 75.5238 51.8646 75.5238C54.5403 75.5482 57.1527 76.7179 59.091 78.8868C61.2611 81.3237 62.3145 84.5648 62.3145 88.0252C62.3145 89.2681 64 89.2681 64 88.0252C64 84.5161 63.073 81.2262 61.1136 78.5212C59.1332 75.7919 56.2679 74.086 53.234 73.6717C51.5064 73.4281 49.7156 73.5499 47.9669 73.5743C44.8488 73.623 41.836 75.0852 39.6027 77.6196C37.1798 80.3977 36 84.1018 36 88.0252C36 88.5614 36.4003 89 36.8427 89H63.1573C64.2528 89 64.2528 87.0505 63.1573 87.0505Z" fill="#3E4C71"/>
</svg>
