<svg width="100" height="145" viewBox="0 0 100 145" fill="none" xmlns="http://www.w3.org/2000/svg">
<rect width="100" height="145" fill="#D07B47"/>
<path d="M34.9843 62.3755C34.9843 66.141 31.8204 69.1681 27.9421 69.1681C24.0638 69.1681 20.8999 66.1164 20.8999 62.3755C20.8999 58.6347 24.0638 55.5829 27.9421 55.5829C31.8204 55.5829 34.9843 58.6347 34.9843 62.3755Z" fill="white"/>
<path d="M33.9637 62.6216C33.9382 65.0089 32.4073 67.2238 30.0599 68.0606C27.6614 68.8974 24.9568 68.2329 23.2983 66.3625C21.6654 64.5167 21.4612 61.7848 22.737 59.6929C24.0128 57.601 26.5898 56.4443 29.0903 56.9119C31.9225 57.478 33.9382 59.8406 33.9637 62.6216C33.9892 63.8768 36.0304 63.8768 36.0049 62.6216C35.9539 59.3484 33.8616 56.4689 30.6977 55.3122C27.5849 54.1801 23.8597 55.1399 21.7419 57.6502C19.5986 60.1851 19.2414 63.8029 21.0275 66.6332C22.788 69.4388 26.2071 70.8662 29.5496 70.251C33.3003 69.5619 35.9794 66.264 36.0049 62.6216C36.0304 61.3419 33.9892 61.3419 33.9637 62.6216Z" fill="white"/>
<path d="M43.8891 86.1742H12.0206V85.7558C12.0206 78.471 18.1443 72.5644 25.6968 72.5644H30.2385C37.791 72.5644 43.9146 78.471 43.9146 85.7558L43.8891 86.1742Z" fill="white"/>
<path d="M43.8891 85.1897H12.0206C12.3523 85.5097 12.7095 85.8542 13.0412 86.1742C13.0412 83.1224 13.9598 80.1937 16.0775 77.8311C18.2208 75.4439 21.2571 73.8688 24.5231 73.598C26.4112 73.4504 28.3248 73.5488 30.213 73.5488C33.4534 73.5734 36.6173 74.7548 38.9647 76.9451C41.5927 79.4062 42.8685 82.6794 42.8685 86.1742C42.8685 87.4293 44.9097 87.4293 44.9097 86.1742C44.9097 82.6302 43.787 79.3078 41.4141 76.576C39.0157 73.8195 35.5456 72.0968 31.8714 71.6784C29.7792 71.4323 27.6104 71.5553 25.4926 71.58C21.7164 71.6292 18.0677 73.1058 15.3631 75.6654C12.4288 78.471 11 82.2118 11 86.1742C11 86.7156 11.4848 87.1586 12.0206 87.1586H43.8891C45.2159 87.1586 45.2159 85.1897 43.8891 85.1897Z" fill="white"/>
<path d="M79.0746 62.3755C79.0746 66.141 75.9107 69.1681 72.0324 69.1681C68.1541 69.1681 64.9902 66.1164 64.9902 62.3755C64.9902 58.6347 68.1541 55.5829 72.0324 55.5829C75.9107 55.5829 79.0746 58.6347 79.0746 62.3755Z" fill="white"/>
<path d="M78.054 62.6216C78.0285 65.0089 76.4975 67.2238 74.1501 68.0606C71.7517 68.8974 69.0471 68.2329 67.3886 66.3625C65.7556 64.5167 65.5515 61.7848 66.8273 59.6929C68.103 57.601 70.6801 56.4443 73.1806 56.9119C76.0128 57.478 78.0029 59.8406 78.054 62.6216C78.0795 63.8768 80.1207 63.8768 80.0952 62.6216C80.0442 59.3484 77.9519 56.4689 74.788 55.3122C71.6752 54.1801 67.95 55.1399 65.8322 57.6502C63.6889 60.1851 63.3317 63.8029 65.1178 66.6332C66.8783 69.4388 70.2974 70.8662 73.6398 70.251C77.3906 69.5619 80.0697 66.264 80.0952 62.6216C80.1207 61.3419 78.0795 61.3419 78.054 62.6216Z" fill="white"/>
<path d="M87.9794 86.1742H56.1109V85.7558C56.1109 78.471 62.2345 72.5644 69.7871 72.5644H74.3288C81.8813 72.5644 88.0049 78.471 88.0049 85.7558L87.9794 86.1742Z" fill="white"/>
<path d="M87.9794 85.1897H56.1109C56.4426 85.5097 56.7998 85.8542 57.1315 86.1742C57.1315 83.1224 58.05 80.1937 60.1678 77.8311C62.3111 75.4439 65.3474 73.8688 68.6133 73.598C70.5015 73.4504 72.4151 73.5488 74.3032 73.5488C77.5437 73.5734 80.7076 74.7548 83.055 76.9451C85.683 79.4062 86.9588 82.6794 86.9588 86.1742C86.9588 87.4293 89 87.4293 89 86.1742C89 82.6302 87.8773 79.3078 85.5044 76.576C83.106 73.8195 79.6359 72.0968 75.9617 71.6784C73.8695 71.4323 71.7007 71.5553 69.5829 71.58C65.8067 71.6292 62.158 73.1058 59.4534 75.6654C56.5191 78.471 55.0903 82.2118 55.0903 86.1742C55.0903 86.7156 55.5751 87.1586 56.1109 87.1586H87.9794C89.2807 87.1586 89.2807 85.1897 87.9794 85.1897Z" fill="white"/>
</svg>
