<svg width="100" height="142" viewBox="0 0 100 142" fill="none" xmlns="http://www.w3.org/2000/svg">
<rect width="100" height="142" fill="#3E4C71"/>
<path d="M57.2237 36.7204C57.2237 39.7993 54.4212 42.2746 50.9859 42.2746C47.5506 42.2746 44.7482 39.7792 44.7482 36.7204C44.7482 33.6616 47.5506 31.1662 50.9859 31.1662C54.4212 31.1662 57.2237 33.6414 57.2237 36.7204Z" fill="white"/>
<path d="M56.3422 36.7204C56.3196 38.6724 54.9636 40.4835 52.8844 41.1677C50.7599 41.852 48.3642 41.3086 46.8952 39.7792C45.4488 38.2699 45.268 36.0362 46.398 34.3256C47.528 32.6151 49.8107 31.6693 52.0255 32.0517C54.5116 32.4944 56.297 34.4263 56.3422 36.7204C56.3648 37.7467 58.1729 37.7467 58.1503 36.7204C58.1051 34.0439 56.2518 31.6894 53.4494 30.7436C50.6921 29.8179 47.3924 30.6027 45.5166 32.6554C43.6181 34.7281 43.3017 37.6863 44.8838 40.0006C46.4432 42.2947 49.4717 43.4619 52.4323 42.9588C55.7546 42.3953 58.1277 39.6987 58.1503 36.7204C58.1503 35.6739 56.3422 35.6739 56.3422 36.7204Z" fill="white"/>
<path d="M65.1112 55.9588H36.8832V55.6166C36.8832 49.66 42.3073 44.8303 48.9971 44.8303H53.02C59.7097 44.8303 65.1338 49.66 65.1338 55.6166L65.1112 55.9588Z" fill="white"/>
<path d="M65.1112 55.1538H36.8832C37.177 55.4154 37.4934 55.6971 37.7872 55.9588C37.7872 53.4634 38.6008 51.0687 40.4767 49.1368C42.3751 47.1848 45.0646 45.8968 47.9574 45.6755C49.6299 45.5547 51.3249 45.6352 52.9974 45.6352C55.8676 45.6554 58.6701 46.6213 60.7493 48.4123C63.0772 50.4247 64.2072 53.1012 64.2072 55.9588C64.2072 56.9851 66.0153 56.9851 66.0153 55.9588C66.0153 53.0609 65.0208 50.3442 62.919 48.1105C60.7945 45.8566 57.7209 44.4479 54.4664 44.1058C52.6132 43.9046 50.6921 44.0052 48.8163 44.0253C45.4714 44.0656 42.2395 45.273 39.8438 47.3659C37.2448 49.66 35.9792 52.7188 35.9792 55.9588C35.9792 56.4015 36.4086 56.7637 36.8832 56.7637H65.1112C66.2865 56.7637 66.2865 55.1538 65.1112 55.1538Z" fill="white"/>
<path d="M33.2445 63.7668C33.2445 66.8457 30.442 69.321 27.0068 69.321C23.5715 69.321 20.769 66.8256 20.769 63.7668C20.769 60.708 23.5715 58.2126 27.0068 58.2126C30.442 58.2126 33.2445 60.708 33.2445 63.7668Z" fill="white"/>
<path d="M32.3405 63.968C32.3179 65.92 30.9618 67.7312 28.8826 68.4154C26.7581 69.0996 24.3625 68.5563 22.8935 67.0269C21.447 65.5176 21.2662 63.2838 22.3962 61.5733C23.5263 59.8628 25.8089 58.917 28.0238 59.2993C30.5324 59.7622 32.3179 61.694 32.3405 63.968C32.3631 64.9944 34.1711 64.9944 34.1485 63.968C34.1033 61.2916 32.2501 58.9371 29.4476 57.9913C26.6903 57.0656 23.3907 57.8504 21.5148 59.903C19.6164 61.9758 19.3 64.934 20.882 67.2482C22.4414 69.5423 25.4699 70.7095 28.4306 70.2064C31.7529 69.643 34.1259 66.9464 34.1485 63.968C34.1711 62.9216 32.3631 62.9216 32.3405 63.968Z" fill="white"/>
<path d="M41.1321 83.2265H12.904V82.8844C12.904 76.9278 18.3281 72.0981 25.0179 72.0981H29.0408C35.7306 72.0981 41.1547 76.9278 41.1547 82.8844L41.1321 83.2265Z" fill="white"/>
<path d="M41.1321 82.4216H12.904C13.1978 82.6832 13.5142 82.9649 13.808 83.2265C13.808 80.7312 14.6217 78.3364 16.4975 76.4046C18.3959 74.4525 21.0854 73.1646 23.9783 72.9433C25.6507 72.8225 27.3458 72.903 29.0182 72.903C31.8885 72.9231 34.6909 73.8891 36.7702 75.6801C39.098 77.6925 40.2281 80.369 40.2281 83.2265C40.2281 84.2529 42.0361 84.2529 42.0361 83.2265C42.0361 80.3287 41.0417 77.612 38.9398 75.3782C36.8154 73.1244 33.7417 71.7157 30.4872 71.3736C28.634 71.1724 26.7129 71.273 24.8371 71.2931C21.4922 71.3334 18.2603 72.5408 15.8647 74.6337C13.2656 76.9278 12 79.9866 12 83.2265C12 83.6693 12.4294 84.0315 12.904 84.0315H41.1321C42.3073 84.0315 42.3073 82.4216 41.1321 82.4216Z" fill="white"/>
<path d="M80.2084 63.7668C80.2084 66.8457 77.4059 69.321 73.9706 69.321C70.5354 69.321 67.7329 66.8256 67.7329 63.7668C67.7329 60.708 70.5354 58.2126 73.9706 58.2126C77.4059 58.2126 80.2084 60.708 80.2084 63.7668Z" fill="white"/>
<path d="M79.3044 63.968C79.2818 65.92 77.9257 67.7312 75.8465 68.4154C73.722 69.0996 71.3264 68.5563 69.8574 67.0269C68.4109 65.5176 68.2301 63.2838 69.3601 61.5733C70.4902 59.8628 72.7728 58.917 74.9877 59.2993C77.4963 59.7622 79.2592 61.694 79.3044 63.968C79.327 64.9944 81.135 64.9944 81.1124 63.968C81.0672 61.2916 79.214 58.9371 76.4115 57.9913C73.6542 57.0656 70.3546 57.8504 68.4787 59.903C66.5803 61.9758 66.2639 64.934 67.8459 67.2482C69.4053 69.5423 72.4338 70.7095 75.3945 70.2064C78.7168 69.643 81.0898 66.9464 81.1124 63.968C81.135 62.9216 79.327 62.9216 79.3044 63.968Z" fill="white"/>
<path d="M88.096 83.2265H59.8679V82.8844C59.8679 76.9278 65.292 72.0981 71.9818 72.0981H76.0047C82.6945 72.0981 88.1186 76.9278 88.1186 82.8844L88.096 83.2265Z" fill="white"/>
<path d="M88.096 82.4216H59.8679C60.1617 82.6832 60.4781 82.9649 60.7719 83.2265C60.7719 80.7312 61.5856 78.3364 63.4614 76.4046C65.3598 74.4525 68.0493 73.1646 70.9422 72.9433C72.6146 72.8225 74.3097 72.903 75.9821 72.903C78.8524 72.9231 81.6548 73.8891 83.7341 75.6801C86.0619 77.6925 87.192 80.369 87.192 83.2265C87.192 84.2529 89 84.2529 89 83.2265C89 80.3287 88.0056 77.612 85.9037 75.3782C83.7793 73.1244 80.7056 71.7157 77.4511 71.3736C75.5979 71.1724 73.6768 71.273 71.801 71.2931C68.4561 71.3334 65.2242 72.5408 62.8286 74.6337C60.2295 76.9278 58.9639 79.9866 58.9639 83.2265C58.9639 83.6693 59.3933 84.0315 59.8679 84.0315H88.096C89.2486 84.0315 89.2486 82.4216 88.096 82.4216Z" fill="white"/>
<path d="M56.7264 91.598C56.7264 94.677 53.924 97.1522 50.4887 97.1522C47.0534 97.1522 44.251 94.6569 44.251 91.598C44.251 88.5392 47.0534 86.0439 50.4887 86.0439C53.924 86.0439 56.7264 88.5191 56.7264 91.598Z" fill="white"/>
<path d="M55.845 91.598C55.8224 93.5501 54.4664 95.3612 52.3871 96.0454C50.2627 96.7296 47.867 96.1863 46.398 94.6569C44.9516 93.1476 44.7708 90.9138 45.9008 89.2033C47.0308 87.4928 49.3135 86.547 51.5283 86.9293C54.0144 87.372 55.7998 89.3039 55.845 91.598C55.8676 92.6244 57.6757 92.6244 57.6531 91.598C57.6079 88.9216 55.7546 86.5671 52.9522 85.6213C50.1949 84.6956 46.8952 85.4804 45.0194 87.533C43.1209 89.6058 42.8045 92.564 44.3866 94.8782C45.946 97.1723 48.9745 98.3395 51.9351 97.8364C55.2574 97.273 57.6305 94.5764 57.6531 91.598C57.6531 90.5516 55.845 90.5516 55.845 91.598Z" fill="white"/>
<path d="M64.614 110.836H36.386V110.494C36.386 104.538 41.8101 99.708 48.4999 99.708H52.5227C59.2125 99.708 64.6366 104.538 64.6366 110.494L64.614 110.836Z" fill="white"/>
<path d="M64.614 110.031H36.386C36.6798 110.293 36.9962 110.575 37.29 110.836C37.29 108.341 38.1036 105.946 39.9795 104.014C41.8779 102.062 44.5674 100.775 47.4602 100.553C49.1327 100.432 50.8277 100.513 52.5001 100.513C55.3704 100.533 58.1729 101.499 60.2521 103.29C62.58 105.302 63.71 107.979 63.71 110.836C63.71 111.863 65.5181 111.863 65.5181 110.836C65.5181 107.939 64.5236 105.222 62.4218 102.988C60.2973 100.734 57.2237 99.3256 53.9692 98.9835C52.1159 98.7822 50.1949 98.8829 48.319 98.903C44.9742 98.9432 41.7423 100.151 39.3466 102.244C36.7476 104.538 35.4819 107.596 35.4819 110.836C35.4819 111.279 35.9114 111.641 36.386 111.641H64.614C65.7893 111.641 65.7893 110.031 64.614 110.031Z" fill="white"/>
</svg>
