<svg width="100" height="145" viewBox="0 0 100 145" fill="none" xmlns="http://www.w3.org/2000/svg">
<rect width="100" height="145" fill="#D8D9DA"/>
<path d="M55.3239 50.6024C55.3239 53.7977 52.809 56.3666 49.7262 56.3666C46.6434 56.3666 44.1286 53.7769 44.1286 50.6024C44.1286 47.4279 46.6434 44.8381 49.7262 44.8381C52.809 44.8381 55.3239 47.407 55.3239 50.6024Z" fill="#3E4C71"/>
<path d="M54.5329 50.6024C54.5126 52.6282 53.2957 54.5078 51.4298 55.2179C49.5234 55.928 47.3736 55.3641 46.0553 53.7769C44.7573 52.2105 44.595 49.8923 45.6091 48.1171C46.6232 46.3418 48.6716 45.3603 50.6591 45.7571C52.8901 46.2165 54.4923 48.2215 54.5329 50.6024C54.5532 51.6675 56.1757 51.6675 56.1554 50.6024C56.1148 47.8247 54.4517 45.3811 51.9369 44.3996C49.4625 43.4388 46.5015 44.2534 44.8181 46.3836C43.1145 48.5348 42.8305 51.6048 44.2502 54.0066C45.6497 56.3875 48.3674 57.5988 51.0242 57.0767C54.0056 56.4919 56.1351 53.6933 56.1554 50.6024C56.1554 49.5163 54.5329 49.5163 54.5329 50.6024Z" fill="#3E4C71"/>
<path d="M62.402 70.5683H37.0707V70.2132C37.0707 64.0313 41.9382 59.019 47.9414 59.019H51.5515C57.5548 59.019 62.4223 64.0313 62.4223 70.2132L62.402 70.5683Z" fill="#3E4C71"/>
<path d="M62.402 69.7329H37.0707C37.3343 70.0044 37.6183 70.2968 37.8819 70.5683C37.8819 67.9786 38.612 65.4933 40.2954 63.4883C41.999 61.4625 44.4125 60.1259 47.0085 59.8961C48.5093 59.7708 50.0304 59.8543 51.5312 59.8543C54.107 59.8752 56.6219 60.8777 58.4877 62.7365C60.5767 64.8249 61.5908 67.6026 61.5908 70.5683C61.5908 71.6334 63.2133 71.6334 63.2133 70.5683C63.2133 67.5609 62.3209 64.7414 60.4347 62.4232C58.5283 60.0841 55.77 58.6221 52.8495 58.2671C51.1865 58.0583 49.4625 58.1627 47.7792 58.1836C44.7776 58.2253 41.8773 59.4784 39.7275 61.6504C37.3952 64.0313 36.2594 67.2058 36.2594 70.5683C36.2594 71.0278 36.6448 71.4037 37.0707 71.4037H62.402C63.4567 71.4037 63.4567 69.7329 62.402 69.7329Z" fill="#3E4C71"/>
<path d="M38.0644 80.9689C38.0644 84.1643 35.5496 86.7332 32.4668 86.7332C29.384 86.7332 26.8691 84.1434 26.8691 80.9689C26.8691 77.7944 29.384 75.2047 32.4668 75.2047C35.5496 75.2047 38.0644 77.7944 38.0644 80.9689Z" fill="#3E4C71"/>
<path d="M37.2532 81.1778C37.2329 83.2036 36.016 85.0833 34.1501 85.7933C32.2437 86.5034 30.0939 85.9395 28.7756 84.3523C27.4776 82.7859 27.3153 80.4677 28.3294 78.6925C29.3435 76.9173 31.3919 75.9357 33.3795 76.3325C35.6307 76.8129 37.2329 78.8178 37.2532 81.1778C37.2735 82.2429 38.896 82.2429 38.8757 81.1778C38.8351 78.4001 37.1721 75.9566 34.6572 74.975C32.1829 74.0143 29.2218 74.8288 27.5384 76.959C25.8348 79.1102 25.5509 82.1803 26.9706 84.582C28.37 86.9629 31.0877 88.1742 33.7445 87.6521C36.7259 87.0673 38.8554 84.2687 38.8757 81.1778C38.896 80.0918 37.2735 80.0918 37.2532 81.1778Z" fill="#3E4C71"/>
<path d="M45.1426 101.165H19.8113V100.81C19.8113 94.6276 24.6788 89.6153 30.682 89.6153H34.2921C40.2954 89.6153 45.1629 94.6276 45.1629 100.81L45.1426 101.165Z" fill="#3E4C71"/>
<path d="M45.1426 100.329H19.8113C20.0749 100.601 20.3588 100.893 20.6225 101.165C20.6225 98.5749 21.3526 96.0896 23.036 94.0846C24.7396 92.0588 27.1531 90.7222 29.7491 90.4924C31.2499 90.3671 32.771 90.4507 34.2718 90.4507C36.8476 90.4716 39.3624 91.474 41.2283 93.3328C43.3173 95.4213 44.3314 98.199 44.3314 101.165C44.3314 102.23 45.9539 102.23 45.9539 101.165C45.9539 98.1572 45.0615 95.3377 43.1753 93.0195C41.2689 90.6804 38.5106 89.2185 35.5901 88.8634C33.9271 88.6546 32.2031 88.759 30.5198 88.7799C27.5182 88.8217 24.6179 90.0747 22.4681 92.2468C20.1358 94.6276 19 97.8021 19 101.165C19 101.624 19.3853 102 19.8113 102H45.1426C46.1973 102 46.1973 100.329 45.1426 100.329Z" fill="#3E4C71"/>
<path d="M73.1106 80.9689C73.1106 84.1643 70.5957 86.7332 67.5129 86.7332C64.4302 86.7332 61.9153 84.1434 61.9153 80.9689C61.9153 77.7944 64.4302 75.2047 67.5129 75.2047C70.5957 75.2047 73.1106 77.7944 73.1106 80.9689Z" fill="#3E4C71"/>
<path d="M72.2993 81.1778C72.279 83.2036 71.0622 85.0833 69.1963 85.7933C67.2898 86.5034 65.14 85.9395 63.8217 84.3523C62.5237 82.7859 62.3615 80.4677 63.3755 78.6925C64.3896 76.9173 66.438 75.9357 68.4256 76.3325C70.6768 76.8129 72.2588 78.8178 72.2993 81.1778C72.3196 82.2429 73.9421 82.2429 73.9218 81.1778C73.8813 78.4001 72.2182 75.9566 69.7033 74.975C67.229 74.0143 64.2679 74.8288 62.5846 76.959C60.8809 79.1102 60.597 82.1803 62.0167 84.582C63.4161 86.9629 66.1338 88.1742 68.7906 87.6521C71.772 87.0673 73.9015 84.2687 73.9218 81.1778C73.9421 80.0918 72.3196 80.0918 72.2993 81.1778Z" fill="#3E4C71"/>
<path d="M80.1887 101.165H54.8574V100.81C54.8574 94.6276 59.7249 89.6153 65.7282 89.6153H69.3382C75.3415 89.6153 80.209 94.6276 80.209 100.81L80.1887 101.165Z" fill="#3E4C71"/>
<path d="M80.1887 100.329H54.8574C55.121 100.601 55.405 100.893 55.6686 101.165C55.6686 98.5749 56.3988 96.0896 58.0821 94.0846C59.7857 92.0588 62.1992 90.7222 64.7952 90.4924C66.296 90.3671 67.8171 90.4507 69.318 90.4507C71.8937 90.4716 74.4086 91.474 76.2745 93.3328C78.3634 95.4213 79.3775 98.199 79.3775 101.165C79.3775 102.23 81 102.23 81 101.165C81 98.1572 80.1076 95.3377 78.2215 93.0195C76.315 90.6804 73.5568 89.2185 70.6362 88.8634C68.9732 88.6546 67.2493 88.759 65.5659 88.7799C62.5643 88.8217 59.6641 90.0747 57.5142 92.2468C55.1819 94.6276 54.0461 97.8021 54.0461 101.165C54.0461 101.624 54.4315 102 54.8574 102H80.1887C81.2231 102 81.2231 100.329 80.1887 100.329Z" fill="#3E4C71"/>
</svg>
