<?xml version="1.0" encoding="UTF-8"?>
<svg id="Layer_1" xmlns="http://www.w3.org/2000/svg" version="1.1" viewBox="0 0 55.77 71.07">
  <defs>
    <style>
      .st0 {
        fill: #3e4c71;
      }
    </style>
  </defs>
  <g>
    <path class="st0" d="M31.59,17.3c0,5.33-3.74,9.62-8.32,9.62s-8.32-4.32-8.32-9.62,3.74-9.62,8.32-9.62,8.32,4.32,8.32,9.62Z"/>
    <path class="st0" d="M30.39,17.65c-.03,3.38-1.84,6.52-4.61,7.7-2.83,1.18-6.03.24-7.98-2.4-1.93-2.61-2.17-6.48-.66-9.44,1.51-2.96,4.55-4.6,7.5-3.94,3.34.8,5.72,4.15,5.75,8.08.03,1.78,2.44,1.78,2.41,0-.06-4.63-2.53-8.71-6.27-10.35-3.68-1.6-8.07-.24-10.57,3.31-2.53,3.59-2.95,8.71-.84,12.72,2.08,3.97,6.12,5.99,10.06,5.12,4.43-.98,7.59-5.65,7.62-10.8.03-1.81-2.38-1.81-2.41,0Z"/>
    <path class="st0" d="M42.11,51H4.48v-.59c0-10.32,7.23-18.68,16.15-18.68h5.36c8.92,0,16.15,8.36,16.15,18.68l-.03.59Z"/>
    <path class="st0" d="M42.11,49.61H4.48c.39.45.81.94,1.21,1.39,0-4.32,1.08-8.47,3.59-11.81,2.53-3.38,6.12-5.61,9.97-5.99,2.23-.21,4.49-.07,6.72-.07,3.83.03,7.56,1.71,10.33,4.81,3.1,3.48,4.61,8.12,4.61,13.07,0,1.78,2.41,1.78,2.41,0,0-5.02-1.33-9.72-4.13-13.59-2.83-3.9-6.93-6.34-11.27-6.93-2.47-.35-5.03-.17-7.53-.14-4.46.07-8.77,2.16-11.96,5.78-3.46,3.97-5.15,9.27-5.15,14.88,0,.77.57,1.39,1.21,1.39h37.63c1.57,0,1.57-2.79,0-2.79Z"/>
  </g>
</svg> 