<svg width="96" height="96" viewBox="0 0 96 96" fill="none" xmlns="http://www.w3.org/2000/svg">
<path d="M48 63C54.627 63 60 57.627 60 51V21C60 14.373 54.627 9 48 9C41.373 9 36 14.373 36 21V51C36 57.627 41.373 63 48 63Z" fill="#FF8C42"/>
<path d="M72 45C72 46.656 70.656 48 69 48C67.344 48 66 46.656 66 45C66 55.059 57.059 63.3 47.001 63.3C36.943 63.3 28 55.059 28 45C28 46.656 26.656 48 25 48C23.344 48 22 46.656 22 45C22 58.254 31.746 69 45 69V78H39C37.344 78 36 79.344 36 81C36 82.656 37.344 84 39 84H57C58.656 84 60 82.656 60 81C60 79.344 58.656 78 57 78H51V69C64.254 69 72 58.254 72 45Z" fill="#FF8C42"/>
</svg> 