<svg width="54" height="54" viewBox="0 0 54 54" fill="none" xmlns="http://www.w3.org/2000/svg">
<circle cx="26.5408" cy="26.5408" r="25" transform="rotate(179.912 26.5408 26.5408)" fill="#D07B47" stroke="#3E4C71" stroke-width="3"/>
<path fill-rule="evenodd" clip-rule="evenodd" d="M32.1871 40.5678L32.3273 40.5672L33.7095 32.3018L39.3293 32.2773L39.2607 16.5367L16.82 16.6344C13.3708 16.6494 10.4467 19.1747 9.92955 22.5848L9.6654 24.3267C9.02123 28.5746 12.3204 32.3949 16.6167 32.3762L27.5215 32.3287L27.5373 35.9584C27.5485 38.5152 29.6302 40.5789 32.1871 40.5678Z" fill="#FFFCFC"/>
<path d="M32.3273 40.5672L32.3316 41.5672L33.1745 41.5635L33.3136 40.7321L32.3273 40.5672ZM33.7095 32.3018L33.7052 31.3018L32.8623 31.3055L32.7232 32.1368L33.7095 32.3018ZM39.3293 32.2773L39.3336 33.2773L40.3336 33.2729L40.3293 32.273L39.3293 32.2773ZM39.2607 16.5367L40.2607 16.5324L40.2564 15.5324L39.2564 15.5367L39.2607 16.5367ZM9.92955 22.5848L8.94086 22.4349L8.94086 22.4349L9.92955 22.5848ZM9.6654 24.3267L10.6541 24.4767L10.6541 24.4767L9.6654 24.3267ZM27.5215 32.3287L28.5215 32.3244L28.5172 31.3244L27.5172 31.3287L27.5215 32.3287ZM27.5373 35.9584L28.5373 35.954L27.5373 35.9584ZM32.3229 39.5672L32.1827 39.5678L32.1914 41.5678L32.3316 41.5672L32.3229 39.5672ZM32.7232 32.1368L31.341 40.4023L33.3136 40.7321L34.6958 32.4667L32.7232 32.1368ZM39.3249 31.2773L33.7052 31.3018L33.7139 33.3018L39.3336 33.2773L39.3249 31.2773ZM38.2608 16.5411L38.3293 32.2817L40.3293 32.273L40.2607 16.5324L38.2608 16.5411ZM16.8243 17.6344L39.2651 17.5367L39.2564 15.5367L16.8156 15.6344L16.8243 17.6344ZM10.9182 22.7348C11.3615 19.8118 13.8679 17.6473 16.8243 17.6344L16.8156 15.6344C12.8737 15.6516 9.53187 18.5376 8.94086 22.4349L10.9182 22.7348ZM10.6541 24.4767L10.9182 22.7348L8.94086 22.4349L8.6767 24.1768L10.6541 24.4767ZM16.6124 31.3762C12.9298 31.3922 10.1019 28.1177 10.6541 24.4767L8.6767 24.1768C7.94051 29.0315 11.7109 33.3976 16.6211 33.3762L16.6124 31.3762ZM27.5172 31.3287L16.6124 31.3762L16.6211 33.3762L27.5259 33.3287L27.5172 31.3287ZM28.5373 35.954L28.5215 32.3244L26.5216 32.3331L26.5374 35.9627L28.5373 35.954ZM32.1827 39.5678C30.1782 39.5765 28.5461 37.9586 28.5373 35.954L26.5374 35.9627C26.5509 39.0719 29.0823 41.5813 32.1914 41.5678L32.1827 39.5678Z" fill="#070707"/>
</svg>
