<svg width="53" height="53" viewBox="0 0 53 53" fill="none" xmlns="http://www.w3.org/2000/svg">
<circle cx="26.5" cy="26.5" r="25" fill="#3E4C71" stroke="#3E4C71" stroke-width="3"/>
<mask id="path-2-inside-1_2063_33657" fill="white">
<path fill-rule="evenodd" clip-rule="evenodd" d="M21 11H20L18.2 20.0001H12V37.0001H37.3211C40.7625 37.0001 43.6934 34.4986 44.2341 31.0999L44.7114 28.0999C45.3877 23.8487 42.103 20.0001 37.7983 20.0001H26V16C26 13.2386 23.7614 11 21 11Z"/>
</mask>
<path fill-rule="evenodd" clip-rule="evenodd" d="M21 11H20L18.2 20.0001H12V37.0001H37.3211C40.7625 37.0001 43.6934 34.4986 44.2341 31.0999L44.7114 28.0999C45.3877 23.8487 42.103 20.0001 37.7983 20.0001H26V16C26 13.2386 23.7614 11 21 11Z" fill="#3E4C71"/>
<path d="M20 11V9H18.3604L18.0388 10.6078L20 11ZM18.2 20.0001V22.0001H19.8396L20.1611 20.3924L18.2 20.0001ZM12 20.0001V18.0001H10V20.0001H12ZM12 37.0001H10V39.0001H12V37.0001ZM44.2341 31.0999L46.2093 31.4142L46.2093 31.4142L44.2341 31.0999ZM44.7114 28.0999L46.6866 28.4142L46.6866 28.4142L44.7114 28.0999ZM26 20.0001H24V22.0001H26V20.0001ZM20 13H21V9H20V13ZM20.1611 20.3924L21.9612 11.3922L18.0388 10.6078L16.2388 19.6079L20.1611 20.3924ZM12 22.0001H18.2V18.0001H12V22.0001ZM14 37.0001V20.0001H10V37.0001H14ZM37.3211 35.0001H12V39.0001H37.3211V35.0001ZM42.259 30.7857C41.8727 33.2133 39.7792 35.0001 37.3211 35.0001V39.0001C41.7457 39.0001 45.5141 35.7839 46.2093 31.4142L42.259 30.7857ZM42.7362 27.7857L42.259 30.7857L46.2093 31.4142L46.6866 28.4142L42.7362 27.7857ZM37.7983 22.0001C40.8731 22.0001 43.2193 24.7491 42.7362 27.7857L46.6866 28.4142C47.5561 22.9483 43.3329 18.0001 37.7983 18.0001V22.0001ZM26 22.0001H37.7983V18.0001H26V22.0001ZM24 16V20.0001H28V16H24ZM21 13C22.6569 13 24 14.3431 24 16H28C28 12.134 24.866 9 21 9V13Z" fill="white" mask="url(#path-2-inside-1_2063_33657)"/>
</svg>
