<svg width="53" height="53" viewBox="0 0 53 53" fill="none" xmlns="http://www.w3.org/2000/svg">
<circle cx="26.5" cy="26.5" r="25" fill="#D9D9D9" stroke="#3E4C71" stroke-width="3"/>
<path fill-rule="evenodd" clip-rule="evenodd" d="M20.1828 12H20.0426L18.6243 20.2594H13V36.0001H35.441C38.8902 36.0001 41.8253 33.4876 42.3572 30.0798L42.629 28.339C43.2916 24.094 40.0092 20.2594 35.7127 20.2594H24.8124V16.6296C24.8124 14.0728 22.7396 12 20.1828 12Z" fill="#FFFCFC"/>
<path d="M20.0426 12V11H19.1997L19.057 11.8308L20.0426 12ZM18.6243 20.2594V21.2594H19.4673L19.6099 20.4286L18.6243 20.2594ZM13 20.2594V19.2594H12V20.2594H13ZM13 36.0001H12V37.0001H13V36.0001ZM42.3572 30.0798L43.3453 30.234L43.3453 30.234L42.3572 30.0798ZM42.629 28.339L41.6409 28.1848L41.6409 28.1848L42.629 28.339ZM24.8124 20.2594H23.8124V21.2594H24.8124V20.2594ZM20.0426 13H20.1828V11H20.0426V13ZM19.6099 20.4286L21.0282 12.1692L19.057 11.8308L17.6388 20.0901L19.6099 20.4286ZM13 21.2594H18.6243V19.2594H13V21.2594ZM14 36.0001V20.2594H12V36.0001H14ZM35.441 35.0001H13V37.0001H35.441V35.0001ZM41.3692 29.9255C40.9132 32.8466 38.3974 35.0001 35.441 35.0001V37.0001C39.3829 37.0001 42.7373 34.1287 43.3453 30.234L41.3692 29.9255ZM41.6409 28.1848L41.3692 29.9255L43.3453 30.234L43.617 28.4933L41.6409 28.1848ZM35.7127 21.2594C39.3954 21.2594 42.2089 24.5462 41.6409 28.1848L43.617 28.4933C44.3743 23.6418 40.623 19.2594 35.7127 19.2594V21.2594ZM24.8124 21.2594H35.7127V19.2594H24.8124V21.2594ZM23.8124 16.6296V20.2594H25.8124V16.6296H23.8124ZM20.1828 13C22.1873 13 23.8124 14.625 23.8124 16.6296H25.8124C25.8124 13.5205 23.2919 11 20.1828 11V13Z" fill="#3E4C71"/>
</svg>
